# xmcd
#
# Track frame offsets:
#	150
#	12196
#	26880
#	39527
#	50819
#	65490
#	76950
#	91962
#	116196
#	128054
#	142255
#	156409
#	170930
#	184822
#	197021
#	212292
#	226573
#	241315
#	256196
#	267973
#
# Disc length: 3745
#
# Revision: 2
# Processed by: cddbd v1.5.1PL0 Copyright (c) Steve Scherf et al.
# Submitted via: dBpowerAMP V4.0
# Normalized: r0:TDELIM( - ),TSWAP
#
DISCID=1e0e9f14
DTITLE=G - Dancin' The Night Away
DYEAR=2003
DGENRE=Blues
TTITLE0=Glen Miller And His Orchestra - In The Mood
TTITLE1=Lionel Hampton - On The Sunny Side Of The Street
TTITLE2=Sidney Bechet - Muskrat Rumble
TTITLE3=Tommy Dorsey And His Orchestra - Marie
TTITLE4=Woody Herman And His Orchestra - At The Woodchoppers Ball
TTITLE5=Benny Goodman And His Orchestra - Somebody Stole My Girl
TTITLE6=Artie Shaw And His Orchestra - Begin The Beguine
TTITLE7=Louis Jordan And His Tympani Five - Saturday Night Fish Fry
TTITLE8=Mills Brothers - Paper Doll
TTITLE9=Artie Shaw And His Orchestra - Frenesi
TTITLE10=Jimmy Dorsey - Marie Elena
TTITLE11=Duke Ellington And His Orchestra - It Don't Mean A Thing If It Don't Swing
TTITLE12=Ray Anthony And His Orchestra - Harlem Nocturne
TTITLE13=Ella Fitzgerald - A-tisket-a-tasket
TTITLE14=Cab Calloway - That Old Black Magic
TTITLE15=Bing Crosby - Alexanders Ragtime Band
TTITLE16=Fats Waller - I Got Rhythm
TTITLE17=Glen Miller And His Orchestra - Pennsylvania 6-5000
TTITLE18=Doris Day And The Les Brown Orchestra - Sentimental Journey
TTITLE19=Andrews Sisters - Beer Barrel Polka
EXTD=
EXTT0=
EXTT1=
EXTT2=
EXTT3=
EXTT4=
EXTT5=
EXTT6=
EXTT7=
EXTT8=
EXTT9=
EXTT10=
EXTT11=
EXTT12=
EXTT13=
EXTT14=
EXTT15=
EXTT16=
EXTT17=
EXTT18=
EXTT19=
PLAYORDER=
